<!-- icon666.com - MILLIONS vector ICONS FREE --><svg version="1.1" id="Capa_1" xmlns="http://www.w3.org/2000/svg" xmlns:xlink="http://www.w3.org/1999/xlink" x="0px" y="0px" viewBox="0 0 429.018 429.018" style="enable-background:new 0 0 429.018 429.018;" xml:space="preserve"><g><path style="fill: rgb(163, 163, 163);" d="M415.398,211.178c5.07,1.96,7.88,6.09,7.34,11.17c-0.7,6.52-2.18,13.07-4.3,19.27 c-2.49,7.27-5.61,14.41-9.23,21.19c-3.77,7.07-7.13,8.39-14.56,5.98c-16.89-5.47-29.12-16.9-38.13-31.81 c-2.91-4.81-3.93-10.58-0.04-15.62c4.21-5.44,10.51-7.61,16.76-6.07c8.05,1.98,15.7,5.64,24.62,8.98c1.37-2.42,2.82-5.84,5.02-8.69 C405.968,211.578,410.018,209.098,415.398,211.178z M417.368,224.448c0.9-3.17-0.21-6.62-6.03-7.98 c-4.15,5.34-8.7,11.18-14.11,18.14c-1.98-1.6-3.99-3.79-6.46-5.1c-5.43-2.88-10.9-6.16-16.77-7.6c-3.24-0.8-8.86,0.71-10.58,3.17 c-1.66,2.36-0.98,8.21,0.94,10.91c7.3,10.21,16.47,18.74,28.06,24.03c7.06,3.21,11.72,2.37,14.76-4.51 C411.568,245.588,414.378,234.938,417.368,224.448z" fill="#F57547"></path><path style="" d="M411.338,216.468c5.82,1.36,6.93,4.81,6.03,7.98c-2.99,10.49-5.8,21.14-10.19,31.06 c-3.04,6.88-7.7,7.72-14.76,4.51c-11.59-5.29-20.76-13.82-28.06-24.03c-1.92-2.7-2.6-8.55-0.94-10.91 c1.72-2.46,7.34-3.97,10.58-3.17c5.87,1.44,11.34,4.72,16.77,7.6c2.47,1.31,4.48,3.5,6.46,5.1 C402.638,227.648,407.188,221.808,411.338,216.468z" fill="#FBB03B"></path><path style="fill: rgb(163, 163, 163);" d="M413.358,92.008c3.09,9.97,0.92,19.84-1.01,29.49c-4.43,22.18-12.85,26.97-34.43,19.93 c-8.01-2.62-15.97-5.75-23.44-9.62c-14.57-7.53-15.77-20.12-3.2-30.81c9.67-8.22,20.36-11.78,32.91-4.75 c1.97-3.05,3.6-5.8,5.44-8.4c3.2-4.54,7.42-7.28,13.18-6.01C408.268,83.048,411.678,86.598,413.358,92.008z M408.098,103.848 c0.37-2.09,0.32-4.59-0.5-6.49c-1.35-3.13-2.83-7.35-5.44-8.54c-4.06-1.86-6.24,2.56-8.12,5.63c-1.89,3.09-3.43,6.39-5.64,10.56 c-2.56-1.18-4.21-1.9-5.82-2.69c-10.87-5.36-20.76-3.4-28.55,5.66c-5.57,6.49-4.74,13.66,2.92,17.16 c9.3,4.25,19.07,7.47,28.69,10.97c1.66,0.6,3.61,0.5,5.43,0.55c8.26,0.25,9.87-0.42,11.99-8.11 C405.288,120.458,406.628,112.118,408.098,103.848z" fill="#F57547"></path><path style="" d="M407.598,97.358c0.82,1.9,0.87,4.4,0.5,6.49c-1.47,8.27-2.81,16.61-5.04,24.7 c-2.12,7.69-3.73,8.36-11.99,8.11c-1.82-0.05-3.77,0.05-5.43-0.55c-9.62-3.5-19.39-6.72-28.69-10.97 c-7.66-3.5-8.49-10.67-2.92-17.16c7.79-9.06,17.68-11.02,28.55-5.66c1.61,0.79,3.26,1.51,5.82,2.69c2.21-4.17,3.75-7.47,5.64-10.56 c1.88-3.07,4.06-7.49,8.12-5.63C404.768,90.008,406.248,94.228,407.598,97.358z" fill="#FBB03B"></path><path style="fill: rgb(163, 163, 163);" d="M401.348,12.988c1.09,5.66,0.75,11.68,0.4,17.51c-0.31,5.1-1.19,10.22-2.41,15.19 c-1.76,7.2-5.52,10.01-12.88,8.67c-7.16-1.31-14.34-3.26-21.07-6.02c-9.08-3.72-12.01-10.17-9.71-18.42 c2.25-8.08,9.89-13.29,18.44-12.42c2.12,0.21,4.2,0.87,6.71,1.41c2.93-3.74,4.96-6.86,7.51-9.47 C393.538,4.128,399.928,5.638,401.348,12.988z M391.798,47.788c4.31-11.48,4.74-22.62,3.4-33.88c-0.78-0.2-1.56-0.41-2.33-0.62 c-3.28,4.73-6.56,9.46-9.98,14.39c-3.99-1.68-6.85-3.5-9.94-4.06c-5.07-0.91-8.41,2.15-10.22,6.56c-1.6,3.92-2.02,8.37,2.16,10.85 C373.048,45.858,381.658,49.618,391.798,47.788z" fill="#F57547"></path><path style="fill: rgb(163, 163, 163);" d="M393.848,345.118c4.16,10.09,4.21,20.75,2.64,31.37c-0.86,5.81-5.6,7.58-10.57,7.68 c-12.05,0.24-23.19-3.47-33.14-9.99c-6.63-4.35-6.67-13.04,0.23-17.44c4.83-3.07,11.1-3.88,18.33-6.21c0.75-1.32,2.14-4.8,4.37-7.6 C381.588,335.538,390.318,336.548,393.848,345.118z M388.148,377.198c4.09-11.67,1.79-21.77-2.86-34.64 c-3.05,4.58-4.75,6.78-6.05,9.19c-1.53,2.81-2.71,5.81-3.95,8.52c-15.72-2.26-16.21-2.06-19.5,7.98 C365.798,374.098,376.028,378.948,388.148,377.198z" fill="#F57547"></path><path style="" d="M395.198,13.908c1.34,11.26,0.91,22.4-3.4,33.88c-10.14,1.83-18.75-1.93-26.91-6.76 c-4.18-2.48-3.76-6.93-2.16-10.85c1.81-4.41,5.15-7.47,10.22-6.56c3.09,0.56,5.95,2.38,9.94,4.06c3.42-4.93,6.7-9.66,9.98-14.39 C393.638,13.498,394.418,13.708,395.198,13.908z" fill="#FBB03B"></path><path style="" d="M385.288,342.558c4.65,12.87,6.95,22.97,2.86,34.64c-12.12,1.75-22.35-3.1-32.36-8.95 c3.29-10.04,3.78-10.24,19.5-7.98c1.24-2.71,2.42-5.71,3.95-8.52C380.538,349.338,382.238,347.138,385.288,342.558z" fill="#FBB03B"></path><path style="fill: rgb(163, 163, 163);" d="M326.908,396.358c0.82,9.2,0.77,18.39-5.61,26.19c-4.38,5.35-9.75,7.82-16.51,5.73 c-6.64-2.06-13.32-4.17-19.67-6.94c-4.13-1.8-7.58-5.15-6.26-10.39c1.28-5.11,4.99-8.54,10.23-8.5c5.67,0.04,11.34,1.36,17.34,2.17 c2.34-3.77,4.52-8.53,7.88-12.22c1.81-1.99,5.85-3.29,8.45-2.77C324.578,389.988,326.688,393.888,326.908,396.358z M318.708,413.378c1.86-4.65,2.47-9.41,0.89-16.34c-3.52,5.67-5.91,9.52-8.55,13.77c-4-1.17-7.41-2.43-10.93-3.1 c-3.19-0.61-6.63-1.17-9.73-0.58c-2.08,0.41-4.91,2.64-5.28,4.48c-0.32,1.59,1.92,4.68,3.77,5.55c4.27,1.99,8.94,3.23,13.54,4.43 C311.328,423.918,315.288,421.888,318.708,413.378z" fill="#F57547"></path><path style="" d="M319.598,397.038c1.58,6.93,0.97,11.69-0.89,16.34c-3.42,8.51-7.38,10.54-16.29,8.21 c-4.6-1.2-9.27-2.44-13.54-4.43c-1.85-0.87-4.09-3.96-3.77-5.55c0.37-1.84,3.2-4.07,5.28-4.48c3.1-0.59,6.54-0.03,9.73,0.58 c3.52,0.67,6.93,1.93,10.93,3.1C313.688,406.558,316.078,402.708,319.598,397.038z" fill="#FBB03B"></path><path style="fill: rgb(163, 163, 163);" d="M306.388,50.458c2.28,14.96,0.34,29.35-9.02,41.94c-3.57,4.8-8.6,7.03-14.46,6.38 c-17.33-1.92-32.75-8.2-44.8-21.23c-11.23-12.14-8.45-24.83,7.35-29.68c6.59-2.02,14.33-0.63,21.52-0.19 c2.7,0.16,5.29,2.03,8.38,3.31c1.33-2.12,2.41-3.97,3.62-5.73c3.58-5.21,8.18-8.64,14.85-7.26 C300.608,39.398,305.378,43.848,306.388,50.458z M291.508,84.288c5.31-9.28,7.17-19.3,5.97-29.73c-0.35-3.02-3.06-5.77-5.52-10.12 c-5.92,6.63-10.48,11.73-15.97,17.86c-2.78-2.05-5.3-4.1-8-5.88c-5.57-3.68-11.75-4.18-17.97-2.38 c-10.83,3.14-13.02,10.63-5.39,18.92c9.67,10.49,22.3,15.13,36.08,17.14C285.708,90.828,289.038,88.598,291.508,84.288z" fill="#F57547"></path><path d="M304.808,287.338c0.45,7.9,0.25,16.65-2.69,23.76c-9.17,22.14-19.51,43.94-37.29,60.81c-6.6,6.26-13.86,12.19-21.73,16.68 c-21,11.97-43.37,20.08-67.92,20.99c-8.44,0.31-16.86,1.27-25.68,1.97c-43.86-1.25-81.66-17.46-111.51-49.87 c-19.81-21.52-29.62-48.29-31.4-77.45c-2.71-44.42,9.27-84.74,36.9-119.76c26.18-33.19,60.81-51.89,102.96-55.47 c12.16-1.04,24.37,1.65,34.51,9.36c4.57,3.47,10.28,7.25,8.31,14.29c-1.77,6.31-8.11,6.84-13.39,8.19 c-4.24,1.09-8.9,1.06-12.84,2.76c-45.1,19.4-85.91,66.47-74.12,132.79c2.07,11.64,4.5,23.1,10.53,33.52 c16.13,27.89,46.47,43.18,78.33,38.85c25.03-3.4,48.77-10.68,70.5-24.1c6.32-3.91,10.76-8.72,13.4-15.48 c2.67-6.86,5.19-13.8,8.23-20.5c3.16-7,8.27-12.2,16.01-14.13C295.878,272.068,304.238,277.108,304.808,287.338z M291.248,309.488 c3.34-8.46,5.12-17.38,1-26.34c-6.8-0.42-10.18,3.38-12.75,8.01c-2.49,4.49-4.49,9.26-6.82,13.85 c-6.27,12.42-11.72,25.06-24.79,32.8c-25.76,15.26-53.71,22.42-83.16,22.25c-34.49-0.21-69.97-21.74-80.96-63.22 c-1.69-6.39-3.05-12.92-3.92-19.47c-4.68-35.26,0.25-68.34,22.97-97.14c19.09-24.2,42.09-42.15,73.88-45.97 c1.33-0.16,2.57-1.02,5.7-2.33c-3.29-3.25-5.39-6.08-8.15-7.93c-6.9-4.61-14.71-6.61-23-6.58c-21.14,0.08-40.55,6.38-58.84,16.56 c-12.67,7.05-23.4,16.5-33.63,26.7c-11.61,11.57-17.52,26.74-26.41,40.02c-0.89,1.34-1.23,3.05-2.72,6.91 c11.24-8.27,20.44-15.04,29.63-21.81c0.47,0.63,0.93,1.26,1.4,1.89c-9.5,7.86-18.73,16.07-28.58,23.46 c-7.79,5.84-10.09,13.38-10.32,23.47c10.2-8.07,19.48-15.41,28.75-22.75c0.55,0.65,1.09,1.29,1.63,1.93 c-2.8,2.68-5.54,5.42-8.4,8.01c-6.55,5.94-13.27,11.69-19.73,17.72c-6.38,5.95-7.2,9.42-5.21,19.3 c7.07-5.92,14.06-11.77,21.04-17.62c-4.23,6.38-8.71,12.36-14.39,16.81c-10.88,8.54-9.88,19.05-7.24,32.49 c10.9-12.07,20.33-23.04,32.89-30.57c-1.91,3.52-4.33,6.55-6.95,9.39c-6,6.49-11.79,13.22-18.25,19.22 c-7.31,6.77-8.38,13.85-2.89,22.9c10.28-9.33,18.18-20.85,30.69-27.28c-9.79,10.89-19.58,21.79-30.28,33.69 c2.97,4.61,5.85,9.08,8.73,13.56l0.61,0.55c0.13,6.27,3.64,10.64,7.98,15.27c6.15-6.87,11.88-13.25,17.61-19.63 c0.5,0.41,1.01,0.83,1.51,1.25c-5.63,7.39-11.26,14.79-17.18,22.57c3.07,3.39,5.45,6.02,7.84,8.67 c7.25-7.24,13.48-13.47,19.71-19.69c0.46,0.47,0.91,0.95,1.37,1.42c-5.68,7.01-11.36,14.02-17.5,21.59 c12.59,10.08,23.86,19.78,39.27,22.46c0.02-0.03,0.05-0.05,0.07-0.08c9.77,7.66,21.33,10.35,33.13,12.32 c7.6-7.87,14.49-15.91,24.18-20.81c-5.92,6.64-11.84,13.28-18.35,20.58c2.87,1,4.23,1.89,5.58,1.88 c22.08-0.13,44.08-0.75,65.6-6.74C247.718,380.738,274.938,350.788,291.248,309.488z" fill="#000000"></path><path style="" d="M297.478,54.558c1.2,10.43-0.66,20.45-5.97,29.73c-2.47,4.31-5.8,6.54-10.8,5.81 c-13.78-2.01-26.41-6.65-36.08-17.14c-7.63-8.29-5.44-15.78,5.39-18.92c6.22-1.8,12.4-1.3,17.97,2.38c2.7,1.78,5.22,3.83,8,5.88 c5.49-6.13,10.05-11.23,15.97-17.86C294.418,48.788,297.128,51.538,297.478,54.558z" fill="#FBB03B"></path><path style="" d="M292.248,283.148c4.12,8.96,2.34,17.88-1,26.34c-16.31,41.3-43.53,71.25-87.65,83.54 c-21.52,5.99-43.52,6.61-65.6,6.74c-1.35,0.01-2.71-0.88-5.58-1.88c6.51-7.3,12.43-13.94,18.35-20.58 c-9.69,4.9-16.58,12.94-24.18,20.81c-11.8-1.97-23.36-4.66-33.13-12.32c0.03-0.03,0.06-0.06,0.08-0.09 c1.29,0.23,3.02,0.86,3.53,0.34c5.61-5.87,10.99-11.96,16.44-17.98c-0.7-0.65-1.41-1.29-2.12-1.93 c-5.95,6.52-11.9,13.05-17.85,19.57c-0.09-0.01-0.17-0.03-0.25-0.04h-0.01c-0.01-0.01-0.02-0.02-0.03-0.03l0.08,0.13 c0.02,0.04,0.06,0.11,0.06,0.11c-15.41-2.68-26.68-12.38-39.27-22.46c6.14-7.57,11.82-14.58,17.5-21.59 c-0.46-0.47-0.91-0.95-1.37-1.42c-6.23,6.22-12.46,12.45-19.71,19.69c-2.39-2.65-4.77-5.28-7.84-8.67 c5.92-7.78,11.55-15.18,17.18-22.57c-0.5-0.42-1.01-0.84-1.51-1.25c-5.73,6.38-11.46,12.76-17.61,19.63 c-4.34-4.63-7.85-9-7.98-15.27c8.39-9.33,16.77-18.67,25.16-28c-10.23,7.73-21.02,14.92-25.77,27.45 c-2.88-4.48-5.76-8.95-8.73-13.56c10.7-11.9,20.49-22.8,30.28-33.69c-12.51,6.43-20.41,17.95-30.69,27.28 c-5.49-9.05-4.42-16.13,2.89-22.9c6.46-6,12.25-12.73,18.25-19.22c2.62-2.84,5.04-5.87,6.95-9.39 c-12.56,7.53-21.99,18.5-32.89,30.57c-2.64-13.44-3.64-23.95,7.24-32.49c5.68-4.45,10.16-10.43,14.39-16.81 c-6.98,5.85-13.97,11.7-21.04,17.62c-1.99-9.88-1.17-13.35,5.21-19.3c6.46-6.03,13.18-11.78,19.73-17.72 c2.86-2.59,5.6-5.33,8.4-8.01c-0.54-0.64-1.08-1.28-1.63-1.93c-9.27,7.34-18.55,14.68-28.75,22.75 c0.23-10.09,2.53-17.63,10.32-23.47c9.85-7.39,19.08-15.6,28.58-23.46c-0.47-0.63-0.93-1.26-1.4-1.89 c-9.19,6.77-18.39,13.54-29.63,21.81c1.49-3.86,1.83-5.57,2.72-6.91c8.89-13.28,14.8-28.45,26.41-40.02 c10.23-10.2,20.96-19.65,33.63-26.7c18.29-10.18,37.7-16.48,58.84-16.56c8.29-0.03,16.1,1.97,23,6.58 c2.76,1.85,4.86,4.68,8.15,7.93c-3.13,1.31-4.37,2.17-5.7,2.33c-31.79,3.82-54.79,21.77-73.88,45.97 c-22.72,28.8-27.65,61.88-22.97,97.14c0.87,6.55,2.23,13.08,3.92,19.47c10.99,41.48,46.47,63.01,80.96,63.22 c29.45,0.17,57.4-6.99,83.16-22.25c13.07-7.74,18.52-20.38,24.79-32.8c2.33-4.59,4.33-9.36,6.82-13.85 C282.068,286.528,285.448,282.728,292.248,283.148z M197.168,378.338c-0.54-0.56-1.08-1.13-1.62-1.69 c-5.21,4.79-10.42,9.58-15.63,14.38c0.57,0.59,1.14,1.19,1.71,1.79C186.808,387.988,191.988,383.168,197.168,378.338z M152.958,396.768c6.69-7.1,13.38-14.19,20.06-21.28C163.928,380.268,156.288,386.438,152.958,396.768z M116.288,392.428 c4.99-5.87,9.97-11.73,14.95-17.6c-0.6-0.52-1.21-1.04-1.81-1.55c-5.21,5.64-10.41,11.29-15.62,16.94 C114.638,390.958,115.468,391.698,116.288,392.428z M85.268,378.888c7.26-8.08,14.52-16.15,21.78-24.23 c-0.62-0.56-1.23-1.11-1.84-1.67c-7.47,7.84-16.62,14.12-21.92,23.99C83.948,377.608,84.608,378.248,85.268,378.888z M69.698,366.638c3.47-3.99,6.94-7.98,10.41-11.98c-0.56-0.49-1.12-0.99-1.68-1.48c-3.56,3.81-7.12,7.62-10.68,11.43 C68.398,365.288,69.048,365.968,69.698,366.638z" fill="#FBB03B"></path><path style="fill: rgb(163, 163, 163);" d="M259.458,181.018c4.48,11.57,3.39,23.78,1.46,35.85c-0.72,4.52-3.31,7.55-7.65,8.33 c-16.04,2.86-32.09,3.67-47.81-1.79c-7.5-2.6-14.82-6.11-15.61-15.13c-0.78-8.97,5.76-14.11,12.6-17.83 c5.64-3.07,12.09-4.66,19.25-7.29c1.89-4.42,3.41-9.42,6.01-13.78c5.28-8.85,13.71-10.46,21.24-3.47 C253.368,170.008,257.288,175.428,259.458,181.018z M251.298,215.618c0.1-16.31,5.63-33.34-10.97-45.51 c-7.2,4.51-8.18,11.14-8.99,17.66c-0.54,4.3-2.75,8.45-6.62,6.1c-9.74-5.91-16.14,0.18-22.51,5.14c-8.14,6.33-6.83,12.57,3.16,15.7 C220.268,219.368,235.408,220.098,251.298,215.618z" fill="#F57547"></path><path style="" d="M240.328,170.108c16.6,12.17,11.07,29.2,10.97,45.51c-15.89,4.48-31.03,3.75-45.93-0.91 c-9.99-3.13-11.3-9.37-3.16-15.7c6.37-4.96,12.77-11.05,22.51-5.14c3.87,2.35,6.08-1.8,6.62-6.1 C232.148,181.248,233.128,174.618,240.328,170.108z" fill="#FBB03B"></path><path d="M195.548,376.648c0.54,0.56,1.08,1.13,1.62,1.69c-5.18,4.83-10.36,9.65-15.54,14.48c-0.57-0.6-1.14-1.2-1.71-1.79 C185.128,386.228,190.338,381.438,195.548,376.648z" fill="#000000"></path><path style="fill: rgb(163, 163, 163);" d="M186.318,269.108c6.52,11.31,7.01,23.87,5,36.33c-0.4,2.48-5.23,6-8.03,6.01 c-10.92,0.05-22.05-0.05-32.71-2.12c-10.63-2.06-12.88-10.58-6.11-19.12c5.35-6.76,12.16-10.65,21.52-8.26 c2.29-5.1,3.62-9.38,5.97-13.01C175.748,263.098,182.858,263.098,186.318,269.108z M185.328,304.578 c0.24-12.22,0.9-22.87-6.98-34.3c-2.51,7.3-4.35,12.65-6.18,17.96c-17.55-2.62-22.21-0.16-24.25,13.63 C159.998,306.378,172.248,306.348,185.328,304.578z" fill="#F57547"></path><path style="" d="M178.348,270.278c7.88,11.43,7.22,22.08,6.98,34.3c-13.08,1.77-25.33,1.8-37.41-2.71 c2.04-13.79,6.7-16.25,24.25-13.63C173.998,282.928,175.838,277.578,178.348,270.278z" fill="#FBB03B"></path><path d="M173.018,375.488c-6.68,7.09-13.37,14.18-20.06,21.28C156.288,386.438,163.928,380.268,173.018,375.488z" fill="#000000"></path><path style="fill: rgb(163, 163, 163);" d="M163.588,9.018c8.29,15.31,10.25,32.26,5.67,49.2c-1.05,3.88-5.65,8.15-9.6,9.68 c-19.94,7.7-39.98,6.38-58.71-3.58c-14.28-7.58-14.88-22.18-2.28-32.52c8.06-6.61,17.07-10.13,26.99-5.99 c4.27-6.79,7.45-13.08,11.77-18.45C145.648-2.872,157.338-2.542,163.588,9.018z M154.478,62.138c5.88-1.39,9.04-5.26,8.77-11.05 c-0.47-10.25-1.37-20.5-2.55-30.69c-0.31-2.76-1.92-5.58-3.55-7.95c-4.74-6.89-8.76-7.12-13.86-0.61 c-5.67,7.24-10.55,14.93-7.64,26.16c-3.5-1.51-5.78-2.32-7.91-3.42c-9.66-5-16.24-4.22-24.04,2.99c-8.61,7.94-7.5,16.94,3.26,21.76 C122.338,66.218,138.338,65.968,154.478,62.138z" fill="#F57547"></path><path style="" d="M163.248,51.088c0.27,5.79-2.89,9.66-8.77,11.05c-16.14,3.83-32.14,4.08-47.52-2.81 c-10.76-4.82-11.87-13.82-3.26-21.76c7.8-7.21,14.38-7.99,24.04-2.99c2.13,1.1,4.41,1.91,7.91,3.42 c-2.91-11.23,1.97-18.92,7.64-26.16c5.1-6.51,9.12-6.28,13.86,0.61c1.63,2.37,3.24,5.19,3.55,7.95 C161.878,30.588,162.778,40.838,163.248,51.088z" fill="#FBB03B"></path><path d="M131.238,374.828c-4.98,5.87-9.96,11.73-14.95,17.6c-0.82-0.73-1.65-1.47-2.48-2.21c5.21-5.65,10.41-11.3,15.62-16.94 C130.028,373.788,130.638,374.308,131.238,374.828z" fill="#000000"></path><path d="M111.388,366.138c0.71,0.64,1.42,1.28,2.12,1.93c-5.45,6.02-10.83,12.11-16.44,17.98c-0.51,0.52-2.24-0.11-3.53-0.34 C99.488,379.188,105.438,372.658,111.388,366.138z" fill="#000000"></path><path d="M107.048,354.658c-7.26,8.08-14.52,16.15-21.78,24.23c-0.66-0.64-1.32-1.28-1.98-1.91c5.3-9.87,14.45-16.15,21.92-23.99 C105.818,353.548,106.428,354.098,107.048,354.658z" fill="#000000"></path><path d="M93.538,385.708c-0.02,0.03-0.05,0.06-0.08,0.09c-0.06-0.04-0.11-0.08-0.17-0.13 C93.368,385.678,93.448,385.698,93.538,385.708z" fill="#000000"></path><path d="M93.458,385.798c-0.02,0.03-0.05,0.05-0.07,0.08c0,0-0.04-0.07-0.06-0.11c-0.03-0.05-0.05-0.1-0.05-0.1h0.01 C93.348,385.718,93.398,385.758,93.458,385.798z" fill="#000000"></path><path d="M93.328,385.768l-0.08-0.13c0.01,0.01,0.02,0.02,0.03,0.03C93.278,385.668,93.298,385.718,93.328,385.768z" fill="#000000"></path><path d="M80.108,354.658c-3.47,4-6.94,7.99-10.41,11.98c-0.65-0.67-1.3-1.35-1.95-2.03c3.56-3.81,7.12-7.62,10.68-11.43 C78.988,353.668,79.548,354.168,80.108,354.658z" fill="#000000"></path><path style="fill: rgb(163, 163, 163);" d="M69.238,84.678c2.87,10.32,1.38,20.63-4.84,29.39c-1.99,2.8-6.69,4.83-10.3,5.1 c-10.47,0.78-20.45-2.05-29.22-7.8c-8.46-5.54-8.11-14.36,0.85-19.13c3.61-1.93,8.28-2.31,12.5-2.5c3.15-0.14,6.36,1.17,9.74,1.87 c2.4-3.45,4.38-6.98,7.02-9.92C60.248,75.858,67.128,77.108,69.238,84.678z M60.648,108.428c3.55-6.93,4.01-14.29,2.28-22.19 c-9.21,2.46-4.85,15.01-14.84,15.89c-4.22-6.08-10.03-8.99-17.59-5.66c-5.86,2.58-6.54,7.6-1.17,10.75 c7.79,4.57,16.44,6.64,25.46,5.5C56.938,112.448,59.638,110.398,60.648,108.428z" fill="#F57547"></path><path style="" d="M62.928,86.238c1.73,7.9,1.27,15.26-2.28,22.19c-1.01,1.97-3.71,4.02-5.86,4.29 c-9.02,1.14-17.67-0.93-25.46-5.5c-5.37-3.15-4.69-8.17,1.17-10.75c7.56-3.33,13.37-0.42,17.59,5.66 C58.078,101.248,53.718,88.698,62.928,86.238z" fill="#FBB03B"></path><path style="fill: rgb(163, 163, 163);" d="M53.938,389.758c4.72,6.57,6.33,14,3.97,21.98c-5.02,16.97-13.48,20.88-29.64,13.74 c-8.5-3.76-12.2-8.16-11.12-13.2c1.2-5.63,6.96-9.39,15.49-10.02c1.81-0.13,3.64-0.02,6.24-0.02c1.46-4.45,2.26-8.09,3.83-11.36 C45.298,385.458,50.408,384.868,53.938,389.758z M46.778,420.718c6.71-5.75,7.67-16.9,2.28-25.74c-0.55,1.05-1.2,1.93-1.51,2.9 c-2.97,9.37-2.97,9.14-12.74,9.98c-4.15,0.36-8.94,0.69-10.73,6.54c4.27,6.16,10.93,7.59,17.83,8.21 C43.478,422.748,45.508,421.808,46.778,420.718z" fill="#F57547"></path><path d="M57.938,303.968c-8.39,9.33-16.77,18.67-25.16,28l-0.61-0.55C36.918,318.888,47.708,311.698,57.938,303.968z" fill="#000000"></path><path style="" d="M49.058,394.978c5.39,8.84,4.43,19.99-2.28,25.74c-1.27,1.09-3.3,2.03-4.87,1.89 c-6.9-0.62-13.56-2.05-17.83-8.21c1.79-5.85,6.58-6.18,10.73-6.54c9.77-0.84,9.77-0.61,12.74-9.98 C47.858,396.908,48.508,396.028,49.058,394.978z" fill="#FBB03B"></path></g></svg>